<?xml version="1.0" standalone="no"?>
<!DOCTYPE svg PUBLIC "-//W3C//DTD SVG 20010904//EN"
 "http://www.w3.org/TR/2001/REC-SVG-20010904/DTD/svg10.dtd">
<svg version="1.0" xmlns="http://www.w3.org/2000/svg"
 width="612.000000pt" height="612.000000pt" viewBox="0 0 612.000000 612.000000"
 preserveAspectRatio="xMidYMid meet">
<metadata>
Created by potrace 1.14, written by Peter Selinger 2001-2017
</metadata>
<g transform="translate(0.000000,612.000000) scale(0.100000,-0.100000)"
fill="#000000" stroke="none">
<path d="M2858 6115 c-1 -2 -39 -6 -83 -9 -44 -4 -91 -8 -105 -11 -14 -2 -41
-6 -60 -9 -155 -19 -410 -84 -596 -151 -130 -48 -366 -153 -372 -167 -2 -5 -9
-8 -14 -8 -16 0 -156 -82 -274 -161 -220 -147 -419 -323 -614 -545 -192 -218
-389 -537 -504 -816 -62 -151 -140 -392 -160 -498 -2 -14 -9 -47 -15 -75 -12
-58 -19 -96 -26 -145 -3 -19 -7 -48 -10 -65 -14 -91 -20 -202 -19 -395 0 -235
8 -351 38 -515 2 -11 7 -38 10 -60 8 -55 61 -263 92 -360 60 -186 160 -412
259 -585 21 -36 43 -74 49 -85 31 -55 164 -244 223 -317 228 -282 529 -541
831 -717 377 -219 751 -344 1217 -406 22 -3 132 -8 245 -11 195 -6 415 5 530
26 25 5 65 11 90 15 246 35 664 177 885 300 33 18 83 45 110 60 291 160 605
427 844 720 74 89 191 252 191 264 0 5 4 11 8 13 29 12 208 357 272 523 23 61
46 119 50 130 44 106 119 415 136 555 3 30 8 58 10 61 25 43 24 683 -1 779 -2
8 -6 35 -9 60 -51 399 -225 854 -473 1237 -123 190 -358 462 -519 600 -292
249 -554 412 -879 546 -110 45 -308 112 -358 121 -15 2 -30 7 -34 9 -9 6 -246
55 -290 61 -15 2 -55 7 -88 11 -33 3 -71 9 -85 12 -29 5 -496 13 -502 8z"/>
</g>
</svg>
